<?xml version="1.0" encoding="utf-8"?>
<!-- Generator: Adobe Illustrator 16.0.0, SVG Export Plug-In . SVG Version: 6.00 Build 0)  -->
<!DOCTYPE svg PUBLIC "-//W3C//DTD SVG 1.1//EN" "http://www.w3.org/Graphics/SVG/1.1/DTD/svg11.dtd">
<svg version="1.1" id="Layer_1" xmlns="http://www.w3.org/2000/svg" xmlns:xlink="http://www.w3.org/1999/xlink" x="0px" y="0px"
	 width="14px" height="14px" viewBox="0 0 14 14" enable-background="new 0 0 14 14" xml:space="preserve">
<path fill="#FFFFFF" d="M13.794,0.206c-0.272-0.274-0.715-0.274-0.988,0L7,6.01L1.195,0.206c-0.274-0.274-0.716-0.274-0.99,0
	c-0.272,0.273-0.272,0.715,0,0.99L6.01,7l-5.805,5.805c-0.272,0.273-0.272,0.717,0,0.989C0.342,13.932,0.521,14,0.7,14
	c0.179,0,0.358-0.068,0.495-0.206L7,7.99l5.806,5.805C12.941,13.932,13.12,14,13.3,14s0.359-0.068,0.494-0.206
	c0.274-0.272,0.274-0.716,0-0.989L7.99,7l5.804-5.805C14.068,0.921,14.068,0.479,13.794,0.206z"/>
</svg>
