<?xml version="1.0" encoding="utf-8"?>
<!-- Generator: Adobe Illustrator 16.0.0, SVG Export Plug-In . SVG Version: 6.00 Build 0)  -->
<!DOCTYPE svg PUBLIC "-//W3C//DTD SVG 1.1//EN" "http://www.w3.org/Graphics/SVG/1.1/DTD/svg11.dtd">
<svg version="1.1" id="Layer_1" xmlns="http://www.w3.org/2000/svg" xmlns:xlink="http://www.w3.org/1999/xlink" x="0px" y="0px"
	 width="10px" height="10px" viewBox="0 0 10 10" enable-background="new 0 0 10 10" xml:space="preserve">
<g>
	<path fill="#F16161" d="M9.931,9.525L10,9.986L8.929,7.775C8.922,7.428,8.927,7.09,8.942,6.762C8.96,6.434,8.974,6.115,8.987,5.808
		C9.021,5.369,9.042,4.953,9.052,4.56S9.04,3.796,8.987,3.448C8.935,3.094,8.839,2.76,8.697,2.445S8.349,1.836,8.073,1.561
		C7.851,1.344,7.601,1.18,7.325,1.068C7.05,0.957,6.769,0.901,6.479,0.901c-0.288,0-0.572,0.056-0.85,0.167
		C5.351,1.18,5.103,1.344,4.887,1.561C4.736,1.711,4.61,1.882,4.508,2.072s-0.175,0.387-0.221,0.59
		C4.241,2.865,4.225,3.075,4.238,3.291S4.294,3.717,4.366,3.92l0.295,0.816L3.835,4.441C3.632,4.369,3.424,4.327,3.211,4.313
		C2.998,4.301,2.79,4.317,2.586,4.363c-0.209,0.046-0.408,0.12-0.595,0.221C1.805,4.686,1.636,4.812,1.485,4.963
		C1.262,5.186,1.097,5.435,0.988,5.709S0.826,6.268,0.826,6.555c0,0.289,0.054,0.572,0.162,0.852
		c0.108,0.277,0.273,0.525,0.497,0.742c0.216,0.223,0.443,0.4,0.678,0.535c0.236,0.135,0.482,0.242,0.738,0.32
		c0.25,0.072,0.511,0.119,0.787,0.143s0.561,0.035,0.855,0.035L5.074,9.15l1.544,0.729L6.194,9.908
		C6.136,9.914,6.077,9.92,6.018,9.924c-0.06,0.002-0.114,0.004-0.167,0.004C5.398,9.961,4.952,9.984,4.513,9.996
		C4.074,10.01,3.648,9.984,3.235,9.918C2.822,9.846,2.419,9.721,2.026,9.539C1.632,9.359,1.259,9.09,0.905,8.729
		C0.604,8.428,0.377,8.088,0.227,7.711C0.075,7.334,0,6.949,0,6.555C0,6.162,0.075,5.777,0.227,5.4
		c0.15-0.377,0.377-0.716,0.678-1.018C1.068,4.219,1.25,4.076,1.45,3.955c0.2-0.122,0.408-0.222,0.625-0.3
		c0.216-0.072,0.439-0.122,0.668-0.147s0.458-0.026,0.688,0c-0.026-0.229-0.026-0.459,0-0.688C3.458,2.59,3.507,2.367,3.579,2.15
		c0.072-0.216,0.169-0.425,0.29-0.625c0.122-0.2,0.268-0.382,0.438-0.546c0.301-0.301,0.64-0.526,1.017-0.673
		s0.763-0.221,1.155-0.221c0.394,0,0.779,0.074,1.156,0.221S8.352,0.679,8.653,0.98c0.34,0.341,0.598,0.704,0.771,1.087
		s0.293,0.782,0.359,1.195c0.064,0.406,0.094,0.827,0.083,1.264c-0.01,0.436-0.028,0.88-0.054,1.332
		c-0.02,0.295-0.036,0.59-0.049,0.885c-0.014,0.295-0.02,0.594-0.02,0.895C9.751,7.945,9.768,8.256,9.794,8.57
		C9.819,8.887,9.866,9.203,9.931,9.525z M4.729,7.215L3.973,6.457C3.914,6.398,3.884,6.324,3.884,6.236
		c0-0.09,0.03-0.166,0.088-0.232l0.108-0.098C4.14,5.84,4.214,5.808,4.302,5.808c0.088,0,0.165,0.032,0.23,0.098L5.28,6.645
		c0.314,0.34,0.74,0.32,1.278-0.061c0.341-0.334,0.345-0.75,0.01-1.248L5.831,4.599C5.765,4.533,5.732,4.456,5.732,4.368
		s0.033-0.162,0.099-0.221l0.098-0.108C5.995,3.973,6.071,3.94,6.16,3.94s0.165,0.033,0.231,0.098l0.747,0.748
		c0.21,0.243,0.345,0.469,0.403,0.678c0.065,0.209,0.07,0.454,0.015,0.733c-0.056,0.277-0.241,0.57-0.556,0.879
		c-0.275,0.23-0.521,0.387-0.737,0.473C6.048,7.633,5.805,7.666,5.536,7.646C5.267,7.627,4.998,7.482,4.729,7.215z M4.917,5.572
		l0.826,0.827C5.814,6.463,5.896,6.5,5.988,6.506s0.171-0.023,0.235-0.088l0.099-0.1c0.065-0.064,0.095-0.145,0.089-0.24
		c-0.007-0.096-0.043-0.176-0.108-0.24L5.467,5.012C5.401,4.939,5.321,4.902,5.226,4.898C5.131,4.896,5.051,4.923,4.985,4.982
		L4.887,5.091C4.821,5.156,4.792,5.234,4.798,5.326S4.844,5.5,4.917,5.572z"/>
</g>
</svg>
