<?xml version="1.0" encoding="utf-8"?>
<!-- Generator: Adobe Illustrator 16.0.0, SVG Export Plug-In . SVG Version: 6.00 Build 0)  -->
<!DOCTYPE svg PUBLIC "-//W3C//DTD SVG 1.1//EN" "http://www.w3.org/Graphics/SVG/1.1/DTD/svg11.dtd">
<svg version="1.1" id="Layer_1" xmlns="http://www.w3.org/2000/svg" xmlns:xlink="http://www.w3.org/1999/xlink" x="0px" y="0px"
	 width="38.489px" height="33.169px" viewBox="0 0 38.489 33.169" enable-background="new 0 0 38.489 33.169" xml:space="preserve">
<g id="Shape_4_copy_2">
	<g id="XMLID_223_">
		<path id="XMLID_224_" fill="#EDF2FA" d="M10.166,8.08l21.373-0.087c1.043,0,1.824-0.869,1.824-1.824l0,0
			c0-1.043-0.869-1.825-1.824-1.825L10.166,4.431c-1.042,0-1.825,0.869-1.825,1.825l0,0C8.341,7.298,9.21,8.08,10.166,8.08z
			 M9.731,15.378h2.867c1.042,0,1.825,0.782,1.825,1.824l0,0c0,1.043-0.782,1.824-1.825,1.824H9.992l0,0l15.986-0.086
			c0.088,0,0.174,0,0.174,0c-0.955-0.088-1.65-0.869-1.65-1.825l0,0c0-0.956,0.695-1.737,1.65-1.824l0,0
			c0.955-0.087,1.65-0.869,1.65-1.825l0,0c0-1.042-0.869-1.824-1.824-1.824l0,0H25.37l0,0h-0.348c0.086,0,0.086,0,0.174,0
			c-0.869-0.087-1.65-0.869-1.65-1.825l0,0c0-0.956,0.693-1.738,1.65-1.825c-0.088,0-0.174,0-0.174,0L11.729,8.08
			c0.956,0,1.737,0.782,1.737,1.825l0,0c0,1.042-0.782,1.824-1.824,1.824H9.036l0,0h1.042c-0.956,0-1.825,0.869-1.825,1.825l0,0
			C8.167,14.509,8.862,15.292,9.731,15.378z M28.149,19.027L6.777,19.115c-1.042,0-1.824,0.868-1.824,1.824l0,0
			c0,1.043,0.869,1.824,1.824,1.824l21.373-0.087c1.043,0,1.824-0.868,1.824-1.824l0,0C29.974,19.896,29.192,19.027,28.149,19.027z
			 M7.385,13.728L7.385,13.728c0-1.042-0.869-1.825-1.825-1.825H5.213c-1.042,0-1.824,0.869-1.824,1.825l0,0
			c0,0.782,0.521,1.477,1.303,1.738h1.39C6.864,15.205,7.385,14.509,7.385,13.728z M33.972,13.641c0-1.042-0.869-1.825-1.826-1.825
			H31.8c-1.043,0-1.826,0.869-1.826,1.825l0,0c0,1.042,0.869,1.825,1.826,1.825h0.346C33.188,15.552,33.972,14.683,33.972,13.641
			L33.972,13.641z"/>
	</g>
</g>
<g id="Rounded_Rectangle_6_copy">
	<g id="XMLID_71_">
		<path id="XMLID_72_" fill="#F7A47A" d="M28.411,12.077h-0.262c-1.303,0-2.432,1.043-2.432,2.433v0.261
			c0,1.303,1.041,2.433,2.432,2.433h0.262c1.303,0,2.432-1.042,2.432-2.433v-0.261C30.757,13.12,29.714,12.077,28.411,12.077z"/>
	</g>
</g>
<g id="Rounded_Rectangle_6_copy_2">
	<g id="XMLID_69_">
		<path id="XMLID_70_" fill="#F7A47A" d="M10.166,12.077H9.905c-1.303,0-2.433,1.043-2.433,2.433v0.261
			c0,1.303,1.042,2.433,2.433,2.433h0.261c1.303,0,2.433-1.042,2.433-2.433v-0.261C12.511,13.12,11.469,12.077,10.166,12.077z"/>
	</g>
</g>
<g id="Rounded_Rectangle_6">
	<g id="XMLID_65_">
		<path id="XMLID_67_" fill="#F7A47A" d="M19.375,4.17h-0.262c-5.473,0-9.904,4.431-9.904,9.905v0.869
			c0,5.474,4.431,9.905,9.904,9.905h0.262c5.473,0,9.905-4.432,9.905-9.905v-0.869C29.28,8.602,24.849,4.17,19.375,4.17z"/>
	</g>
</g>
<g id="Rounded_Rectangle_6_copy_4">
	<g id="XMLID_64_">
		<path id="XMLID_66_" fill="#FAB48A" d="M19.202,3.041H18.94c-5.473,0-9.904,4.431-9.904,9.905v0.695
			c0,5.474,4.431,9.905,9.904,9.905h0.262c5.473,0,9.905-4.431,9.905-9.905v-0.695C29.106,7.472,24.675,3.041,19.202,3.041z"/>
	</g>
</g>
<g id="Rounded_Rectangle_6_copy_3">
	<g id="XMLID_68_">
		<path id="XMLID_73_" fill="#FFFFFF" d="M21.894,17.55h-5.299c-0.174,0-0.261,0.174-0.261,0.261v0.435
			c0,1.391,1.129,2.52,2.52,2.52h0.781c1.391,0,2.52-1.129,2.52-2.52v-0.435C22.241,17.724,22.067,17.55,21.894,17.55z"/>
	</g>
</g>
<g id="Shape_3">
	<g id="XMLID_74_">
		<path id="XMLID_75_" fill="#382D3E" d="M27.89,6.69c-2.346-2.52-2.781-0.782-2.781-0.782s2.52,1.303,3.824,7.211h0.693
			C29.626,13.206,30.321,9.123,27.89,6.69z"/>
	</g>
</g>
<g id="Shape_2">
	<g id="XMLID_78_">
		<path id="XMLID_79_" fill="#47384F" d="M29.106,0c0,0-1.391,3.563-6.518,3.041c0,0-15.291-3.128-13.9,10.6H9.47
			c0,0,0.174-4.605,3.302-5.734C12.772,7.906,31.104,13.293,29.106,0z"/>
	</g>
</g>
<g id="Rectangle_4">
	<g id="XMLID_326_">
		<g id="XMLID_327_">
			<path id="XMLID_134_" fill="#7AA0D4" d="M26.413,10.513H12.077c-0.956,0-1.737,0.782-1.737,1.738v2.606
				c0,0.956,0.782,1.738,1.737,1.738h4.257c0.956,0,1.738-0.782,1.738-1.738v-0.695l0,0c0-0.521,0.435-0.956,0.956-0.956h0.26
				c0.521,0,0.956,0.435,0.956,0.956l0,0v0.695c0,0.956,0.783,1.738,1.738,1.738h4.258c0.955,0,1.736-0.782,1.736-1.738V12.25
				C28.149,11.295,27.368,10.513,26.413,10.513z"/>
		</g>
	</g>
	<g id="XMLID_321_">
		<g id="XMLID_322_">
			<path id="XMLID_323_" fill="#6286C4" d="M26.413,16.942h-4.258c-1.129,0-1.999-0.869-1.999-1.999v-0.695
				c0-0.435-0.348-0.695-0.781-0.695h-0.262c-0.434,0-0.781,0.348-0.781,0.695v0.087v0.521c0,1.129-0.869,1.999-1.999,1.999h-4.257
				c-1.129,0-1.998-0.869-1.998-1.999V12.25c0-1.129,0.869-1.998,1.998-1.998h14.249c1.129,0,1.998,0.869,1.998,1.998v2.606
				C28.411,15.986,27.454,16.942,26.413,16.942z M20.504,14.075L20.504,14.075v0.261v0.695c0,0.869,0.696,1.564,1.563,1.564h4.258
				c0.869,0,1.564-0.695,1.564-1.564v-2.606c0-0.869-0.695-1.564-1.564-1.564H12.077c-0.869,0-1.563,0.695-1.563,1.564v2.606
				c0,0.869,0.695,1.564,1.563,1.564h4.257c0.869,0,1.564-0.695,1.564-1.564v-0.869l0,0c0.087-0.521,0.608-0.956,1.13-0.956h0.26
				C19.896,13.12,20.417,13.467,20.504,14.075z"/>
		</g>
	</g>
</g>
<g id="Rectangle_5_copy_3">
	<g id="XMLID_82_">
		<polygon id="XMLID_84_" fill="#6F92CB" points="27.021,10.513 23.546,16.682 24.153,16.682 27.454,10.947 		"/>
	</g>
</g>
<g id="Rectangle_5_copy_2">
	<g id="XMLID_85_">
		<polygon id="XMLID_86_" fill="#6F92CB" points="24.849,10.513 21.372,16.682 22.851,16.682 26.413,10.513 		"/>
	</g>
</g>
<g id="Rectangle_5_copy_4">
	<g id="XMLID_95_">
		<path id="XMLID_99_" fill="#6F92CB" d="M14.597,10.773l-3.302,5.561c0,0,0.174,0.087,0.261,0.087s0.261,0.087,0.261,0.087
			l3.388-5.734H14.597z"/>
	</g>
</g>
<g id="Rectangle_5_copy_4_2_">
	<g id="XMLID_105_">
		<polygon id="XMLID_114_" fill="#6F92CB" points="15.726,10.773 12.424,16.508 13.988,16.508 17.29,10.773 		"/>
	</g>
</g>
<g id="_x3C__x2F__x3E__copy_2">
	<g id="XMLID_286_">
		<path id="XMLID_287_" fill="#DDE3EC" d="M2.693,2.433L1.999,2.259L1.39,2.085l0,0l0.608-0.174l0.695-0.261V0.956L0.608,1.825
			v0.521l2.085,0.782V2.433z M4.17,0.348H3.649L2.867,4.17h0.521L4.17,0.348z M4.431,1.651l0.695,0.261l0.608,0.174l0,0L5.126,2.259
			L4.431,2.433v0.608l2.085-0.782V1.825L4.431,0.956V1.651z M34.579,22.763l-0.521,0.261l0,0l0.174-0.521l0.262-0.694l-0.348-0.262
			l-0.609,1.825l0.348,0.261l1.65-0.956l-0.348-0.261L34.579,22.763z M34.319,20.417l2.172,2.78l0.26-0.261l-2.172-2.78
			L34.319,20.417z M35.187,20.331l0.348,0.261l0.609-0.435l0.521-0.261l0,0l-0.174,0.521l-0.262,0.695l0.348,0.26l0.609-1.824
			l-0.348-0.26L35.187,20.331z M34.927,1.39l-0.521-0.521l-0.434-0.435l0,0l0.521,0.087l0.867,0.174l0.174-0.435l-1.91-0.174
			L33.45,0.435l1.303,1.39L34.927,1.39z M34.839,3.041l2.174-2.78l-0.348-0.174l-2.172,2.78L34.839,3.041z M37.013,0.869
			l-0.174,0.434l0.521,0.521l0.434,0.435l0,0l-0.521-0.087l-0.695-0.087L36.403,2.52l1.912,0.174l0.174-0.347L37.013,0.869z
			 M1.564,17.898l-0.521-0.521l-0.435-0.434l0,0l0.521,0.086l0.695,0.087l0.174-0.434l-1.912-0.174L0,16.942l1.39,1.39L1.564,17.898
			z M3.215,16.595l-2.172,2.78l0.347,0.174l2.172-2.78L3.215,16.595z M3.389,17.811l0.521,0.521l0.435,0.435l0,0l-0.521-0.088
			l-0.695-0.086l-0.174,0.434l1.912,0.174l0.174-0.348l-1.39-1.39L3.389,17.811z"/>
	</g>
</g>
<g id="Shape_4">
	<g id="XMLID_92_">
		<path id="XMLID_118_" fill="#E7737B" d="M27.89,19.201l-16.073,0.348c-0.695,0-1.043,0.956-0.435,1.391l5.908,4.344l-0.521,6.951
			c-0.087,0.695,0.869,1.129,1.303,0.521l10.339-12.338C28.933,19.983,28.585,19.201,27.89,19.201z"/>
	</g>
</g>
<g id="Forma_1">
	<g id="XMLID_230_">
		<path id="XMLID_231_" fill="#B4535A" d="M19.723,21.894c0.173,0,0.261,0,0.434,0l-0.173-0.434l0.955-0.521
			c0.088-0.087,0.174-0.174,0.088-0.261c-0.088-0.087-0.174-0.174-0.262-0.087L19.635,21.2c-0.086,0.087-0.086,0.173-0.086,0.261
			L19.723,21.894z M18.506,21.982c-0.087-0.088-0.174-0.174-0.261-0.088l-1.129,0.608c-0.087,0.087-0.174,0.174-0.087,0.261
			s0.174,0.174,0.261,0.087l0.956-0.435l0.261,0.435c0.087-0.174,0.173-0.261,0.26-0.348L18.506,21.982z M23.024,24.328
			c-0.088-0.088-0.174-0.174-0.262-0.088l-0.955,0.521l-0.262-0.434c-0.086,0.174-0.174,0.26-0.26,0.348l0.26,0.434
			c0.088,0.087,0.174,0.174,0.262,0.087l1.129-0.608C23.024,24.587,23.024,24.414,23.024,24.328z M20.244,25.283
			c-0.174,0-0.348,0-0.435,0l0.261,0.435l-0.956,0.521c-0.086,0.087-0.174,0.174-0.086,0.261c0.086,0.087,0.174,0.174,0.26,0.087
			l1.13-0.608c0.087-0.087,0.174-0.174,0.087-0.261L20.244,25.283z M21.46,23.372l0.26,0.087l0.869,0.174
			c0.088,0,0.174-0.087,0.262-0.174c0-0.087-0.088-0.261-0.174-0.261l-1.043-0.174l-0.262-0.087l0,0l0,0l0.088-0.261l0.348-0.956
			c0-0.086,0-0.26-0.088-0.26c-0.086,0-0.26,0-0.26,0.086l-0.348,0.783l-0.086,0.26c-0.435-0.434-1.13-0.521-1.651-0.26
			c-0.696,0.347-0.956,1.216-0.609,1.824l1.651-0.869c0.087,0,0.174,0,0.174,0.087s0,0.174-0.087,0.174l-1.65,0.868
			c0.434,0.609,1.216,0.869,1.911,0.521C21.286,24.587,21.546,23.98,21.46,23.372z"/>
	</g>
</g>
<g id="Rectangle_6_copy">
	<g id="XMLID_197_">
		<path id="XMLID_198_" fill="#EBC85D" d="M8.602,13.38h1.303v-0.869H8.602V13.38z M28.585,12.511v0.869h1.303v-0.869H28.585z"/>
	</g>
</g>
<g id="Rounded_Rectangle_7_copy">
	<g id="XMLID_89_">
		<path id="XMLID_90_" fill="#FBC09B" d="M26.151,22.676l-0.174-0.087c-0.695-0.434-1.564-0.26-1.998,0.435l-0.955,1.478
			c-0.436,0.694-0.262,1.563,0.434,1.998l0.174,0.087c0.695,0.435,1.564,0.261,1.998-0.435l0.957-1.477
			C27.021,24.066,26.847,23.111,26.151,22.676z"/>
	</g>
</g>
<g id="Rounded_Rectangle_7_copy_2">
	<g id="XMLID_87_">
		<path id="XMLID_88_" fill="#FBC09B" d="M16.16,22.502l-1.303-1.13c-0.608-0.521-1.477-0.434-1.998,0.174l-0.087,0.174
			c-0.521,0.609-0.435,1.478,0.174,1.999l1.303,1.13c0.608,0.521,1.477,0.434,1.998-0.174l0.087-0.174
			C16.855,23.893,16.769,23.024,16.16,22.502z"/>
	</g>
</g>
</svg>
